<svg xmlns="http://www.w3.org/2000/svg" width="480" height="300" viewBox="0 0 480 300" fill="none">
<defs><linearGradient id="a" x1="100" y1="20" x2="390" y2="290" gradientUnits="userSpaceOnUse"><stop stop-color="#e1edff"/><stop offset="1" stop-color="#c9dfff"/></linearGradient><filter id="s" x="-30%" y="-30%" width="160%" height="170%"><feDropShadow dy="9" stdDeviation="10" flood-color="#285bbb" flood-opacity=".12"/></filter></defs>
<ellipse cx="247" cy="161" rx="170" ry="117" fill="url(#a)"/><circle cx="395" cy="64" r="8" fill="#a9caff"/><circle cx="87" cy="218" r="6" fill="#aacbff"/><path d="m401 217 6 11 12 2-9 9 2 12-12-6-11 6 2-12-9-9 13-2 6-11Z" fill="#c0d7fc"/>
<g filter="url(#s)" transform="rotate(-8 170 150)"><rect x="82" y="60" width="172" height="203" rx="18" fill="white"/><rect x="99" y="79" width="138" height="95" rx="10" fill="#edf4ff"/><path d="M140 124v-12a27 27 0 0 1 54 0v12" stroke="#497ee0" stroke-width="5" stroke-linecap="round"/><rect x="131" y="119" width="19" height="31" rx="8" fill="white" stroke="#497ee0" stroke-width="4"/><rect x="184" y="119" width="19" height="31" rx="8" fill="white" stroke="#497ee0" stroke-width="4"/><rect x="100" y="189" width="79" height="8" rx="4" fill="#aec8ef"/><rect x="100" y="207" width="118" height="6" rx="3" fill="#dfe9f8"/><rect x="100" y="222" width="92" height="6" rx="3" fill="#dfe9f8"/><rect x="100" y="240" width="40" height="9" rx="4.5" fill="#e5edff"/></g>
<g filter="url(#s)" transform="rotate(9 310 152)"><rect x="241" y="83" width="150" height="172" rx="17" fill="white"/><rect x="257" y="98" width="118" height="87" rx="9" fill="#eaf6f4"/><rect x="280" y="119" width="72" height="47" rx="7" fill="white" stroke="#53a99f" stroke-width="3"/><circle cx="298" cy="136" r="6" fill="#b9ddd7"/><path d="M289 154c0-11 18-11 18 0M319 133h21M319 143h14M319 153h18" stroke="#53a99f" stroke-width="3" stroke-linecap="round"/><rect x="258" y="200" width="67" height="7" rx="3.5" fill="#b2c6e2"/><rect x="258" y="217" width="101" height="6" rx="3" fill="#e2eaf6"/><rect x="258" y="233" width="42" height="9" rx="4.5" fill="#e3f2ee"/></g>
<g filter="url(#s)"><circle cx="267" cy="177" r="46" fill="#fff" fill-opacity=".84" stroke="#3872dc" stroke-width="10"/><path d="m301 211 34 34" stroke="#2459bd" stroke-width="16" stroke-linecap="round"/><path d="m251 177 11 11 22-25" stroke="#3872dc" stroke-width="6" stroke-linecap="round" stroke-linejoin="round"/></g>
<g filter="url(#s)"><rect x="316" y="35" width="101" height="39" rx="19.5" fill="white"/><circle cx="337" cy="55" r="10" fill="#e8f5f0"/><path d="m333 55 3 3 6-7" stroke="#3a9f7b" stroke-width="2" stroke-linecap="round"/><rect x="355" y="51" width="44" height="6" rx="3" fill="#9ebbdc"/></g>
<path d="M74 83h12m-6-6v12M413 167h14m-7-7v14" stroke="#85aeea" stroke-width="3" stroke-linecap="round"/>
</svg>
